<svg id="uuid-47f78295-0edc-465e-b55a-d413ccac82c8" xmlns="http://www.w3.org/2000/svg" viewBox="0 0 32 32"><defs><style>.uuid-affb58b0-b802-41e7-9976-54a0022ab950{fill:none;}.uuid-834794ef-d5d2-4b32-bd07-cf2fcdea2c3f{fill:#394eed;}</style></defs><path class="uuid-834794ef-d5d2-4b32-bd07-cf2fcdea2c3f" d="M31.63538,25.25995c-1.35793,.60186-5.70363,2.3366-11.28271,2.64097l-.77351-3.85188c3.44986-1.06905,2.97339-2.55486,3.80363-4.08545,.96962-1.78787,2.81564-2.08594,2.39386-3.66661s-1.41545-5.168-1.41545-5.168l-.01953,.00479c-.14515-.66165-.38334-1.2573-.71998-1.77655-.37446-.57678-.82473-1.07699-1.34408-1.49531l4.00951-.98467,5.64637,17.71865c.08452,.26549-.04332,.55117-.29811,.66405ZM21.02642,2.58825c-.63707-.56085-1.31247-.97349-2.15945-1.23084-.78212-.23721-1.60295-.35741-2.43976-.35741-.72495,0-1.43942,.10254-2.12345,.30468-.68278,.20228-1.29383,.54886-1.81619,.95271-.16992,.13148-.33016,.28049-.48268,.43842v6.08939c.1748,.14892,.35892,.28599,.55379,.40176,.51606,.30708,1.08192,.55454,1.68196,.73578,.60013,.18159,1.16848,.36625,1.68906,.54904,.52041,.18292,.95941,.4078,1.30484,.66858,.35022,.2646,.52778,.63031,.52778,1.08689,0,.27143-.06907,.51078-.20516,.71146-.1353,.19921-.3156,.36532-.53621,.49342-.21972,.12757-.47078,.22434-.74599,.28786-.27512,.06339-.55033,.09561-.81834,.09561-.20951,0-.41929-.01815-.62321-.0538-1.09035-.19069-2.074-.68487-2.86056-1.42375-.03374,.52214-.09366,1.03802-.18616,1.54001-.11807,.63786-.31347,1.23604-.58051,1.79009,.07209,.04594,.14204,.09526,.21511,.13965,.36967,.22447,.7578,.40979,1.15392,.55077,.82278,.29296,1.7283,.44144,2.69153,.44144,.76694,0,1.50636-.09903,2.19758-.29429,.68988-.19504,1.30439-.49879,1.82649-.90268,.52183-.40358,.94174-.9187,1.24784-1.53113,.30619-.61269,.46137-1.33977,.46137-2.16118,0-.86255-.16885-1.56029-.50212-2.07422-.33389-.51433-.76037-.93042-1.26782-1.23644-.51011-.30708-1.06523-.54749-1.64982-.71447-.5869-.16765-1.14451-.33811-1.65737-.50656-.51393-.16912-.94591-.3761-1.28362-.61562-.34348-.24325-.51775-.59844-.51775-1.05582,0-.28564,.0728-.57159,.21599-.7724,.14213-.19913,.32981-.36168,.55796-.4829,.22594-.11994,.46963-.20965,.72424-.26629,.25497-.05642,.50532-.08509,.74413-.08509,.40846,0,.84808,.08216,1.3067,.24436,.4485,.15882,.81133,.40527,1.07899,.73298l2.2769-2.48999ZM3.99824,11.53853H1c.00042,.34778,.01543,.65784,.04535,1.01064,.03046,.35905,.08438,.72026,.16253,1.08183,.23107,1.06859,.78569,1.8704,1.52391,2.37924,.76005,.52401,1.70405,.78977,2.80551,.78977,.94475,0,1.71939-.14272,2.30249-.42428,.58235-.28144,1.03673-.65935,1.35032-1.12334,.31395-.46451,.52991-1.00579,.64153-1.60891,.11213-.6059,.16835-1.23905,.16835-1.88192V1h-3l.00176,10.45228c0,.41348-.00091,.82676,.0008,1.23984,.00171,.41295-.16752,.80821-.46753,1.09198s-.70405,.43078-1.11627,.40613c-.79475-.04752-1.40891-.70203-1.41865-1.48577l-.00188-1.16593Zm6.01429,8.08976l-3.01252,.80692v9.82943c0,.18195,.09073,.35195,.242,.4532,.15119,.10125,.34303,.1206,.51126,.05122,1.43294-.5909,4.76127-1.84083,8.68342-2.49103l-.3813-3.56931c-1.29214,.23268-3.71317,.71296-5.86831,1.43654l-.18708,.06281v-6.5798h.01252Z"/><rect class="uuid-affb58b0-b802-41e7-9976-54a0022ab950" x="0" width="32" height="32"/></svg>