<svg xmlns="http://www.w3.org/2000/svg" xmlns:xlink="http://www.w3.org/1999/xlink" viewBox="0 0 64 64"><defs><style>.uuid-35add01d-e8a5-497c-8ea0-e9edc70faabe{fill:none;}.uuid-e2e4709f-bd11-419b-80f1-83f8ea7019b3{fill:#fff;}.uuid-3d3f0910-50ed-47fd-aa19-6501e505c6d0{fill:url(#uuid-39dbb71f-e1a2-4105-9f02-08614b711eb8);}.uuid-fc4985ef-970c-4a4a-9147-2c1240ea6f60{mask:url(#uuid-8c223d37-55b4-4ca6-858d-2ac156378a8b);}.uuid-2670fad5-258d-46c4-afe8-c86811ff56ca{mask:url(#uuid-e8d7137e-c88e-406c-8045-ba762ba7cc01);}.uuid-49962f82-b4f3-498d-a304-f50c7f0a43c5{fill:url(#uuid-45f2c676-3736-48dc-b528-b957f450cc2b);}.uuid-fb36825d-10bf-4a2c-8298-6fe8045af229{fill:url(#uuid-b18ca139-5431-4c52-bd05-30ccaf4d3851);}.uuid-60d3915a-20f4-4b91-978a-886348e2b70c{fill:url(#uuid-bce50ea1-3402-41f9-b7a6-d396fbbfa835);}.uuid-3e284742-9bd2-4847-bc2c-2a78cc0461eb{fill:url(#uuid-ba6e1434-25a7-46f0-b1c5-04ff3f6cbe90);}.uuid-235b31a6-272a-4f02-bb1b-b15999f04f38{fill:url(#uuid-3ff63c94-4504-4f33-b13d-f0e61c225693);}</style><linearGradient id="uuid-b18ca139-5431-4c52-bd05-30ccaf4d3851" x1="38.55088" y1="3.78413" x2="9.00924" y2="54.95176" gradientUnits="userSpaceOnUse"><stop offset=".00475" stop-color="#8087ff"/><stop offset=".05952" stop-color="#8087ff" stop-opacity=".79702"/><stop offset=".12357" stop-color="#8087ff" stop-opacity=".58812"/><stop offset=".18847" stop-color="#8087ff" stop-opacity=".40794"/><stop offset=".25289" stop-color="#8087ff" stop-opacity=".26085"/><stop offset=".31675" stop-color="#8087ff" stop-opacity=".14665"/><stop offset=".37988" stop-color="#8087ff" stop-opacity=".0652"/><stop offset=".44198" stop-color="#8087ff" stop-opacity=".01636"/><stop offset=".50186" stop-color="#8087ff" stop-opacity="0"/></linearGradient><linearGradient id="uuid-3ff63c94-4504-4f33-b13d-f0e61c225693" x1="32" y1=".00081" x2="32" y2="64.00065" gradientUnits="userSpaceOnUse"><stop offset=".00038" stop-color="#4551e0" stop-opacity="0"/><stop offset=".0727" stop-color="#4551e0" stop-opacity=".01861"/><stop offset=".14767" stop-color="#4551e0" stop-opacity=".07416"/><stop offset=".22388" stop-color="#4551e0" stop-opacity=".16679"/><stop offset=".30094" stop-color="#4551e0" stop-opacity=".2966"/><stop offset=".37866" stop-color="#4551e0" stop-opacity=".46375"/><stop offset=".45584" stop-color="#4551e0" stop-opacity=".66526"/><stop offset=".50118" stop-color="#4551e0" stop-opacity=".8"/><stop offset=".60399" stop-color="#4551e0" stop-opacity=".78139"/><stop offset=".71055" stop-color="#4551e0" stop-opacity=".72587"/><stop offset=".81882" stop-color="#4551e0" stop-opacity=".63336"/><stop offset=".92754" stop-color="#4551e0" stop-opacity=".50472"/><stop offset=".99962" stop-color="#4551e0" stop-opacity=".4"/></linearGradient><radialGradient id="uuid-45f2c676-3736-48dc-b528-b957f450cc2b" cx="13.51227" cy="43.92811" fx="13.51227" fy="43.92811" r="50.32071" gradientTransform="translate(32.63428 .00196) scale(1.0825)" gradientUnits="userSpaceOnUse"><stop offset="0" stop-color="#858dff"/><stop offset=".51514" stop-color="#5864fa"/></radialGradient><linearGradient id="uuid-39dbb71f-e1a2-4105-9f02-08614b711eb8" x1="38.61994" y1="3.824" x2="9.14053" y2="54.88383" gradientUnits="userSpaceOnUse"><stop offset="0" stop-color="#e63a00"/><stop offset=".03093" stop-color="#e63a00" stop-opacity=".88336"/><stop offset=".09894" stop-color="#e63a00" stop-opacity=".6517"/><stop offset=".1678" stop-color="#e63a00" stop-opacity=".45209"/><stop offset=".23618" stop-color="#e63a00" stop-opacity=".28904"/><stop offset=".30392" stop-color="#e63a00" stop-opacity=".16252"/><stop offset=".3709" stop-color="#e63a00" stop-opacity=".07227"/><stop offset=".43681" stop-color="#e63a00" stop-opacity=".01813"/><stop offset=".50036" stop-color="#e63a00" stop-opacity="0"/></linearGradient><linearGradient id="uuid-bce50ea1-3402-41f9-b7a6-d396fbbfa835" x1="4.25" y1="32.00131" x2="32" y2="32.00131" gradientUnits="userSpaceOnUse"><stop offset=".72165" stop-color="#fff"/><stop offset=".99962" stop-color="#333"/></linearGradient><mask id="uuid-e8d7137e-c88e-406c-8045-ba762ba7cc01" x="4.25" y=".00197" width="27.75" height="63.99867" maskUnits="userSpaceOnUse"><g><path class="uuid-3d3f0910-50ed-47fd-aa19-6501e505c6d0" d="M31.09779,.19078L8.44314,10.10697c-2.54731,1.11497-4.19314,3.63197-4.19314,6.41261V52.06028l26.84779,11.75157c.28757,.12587,.59488,.1888,.90221,.1888V.00197c-.30733,0-.61464,.06293-.90221,.1888Z"/><path class="uuid-60d3915a-20f4-4b91-978a-886348e2b70c" d="M31.09779,.19078L8.44314,10.10697c-2.54731,1.11497-4.19314,3.63197-4.19314,6.41261V52.06028l26.84779,11.75157c.28757,.12587,.59488,.1888,.90221,.1888V.00197c-.30733,0-.61464,.06293-.90221,.1888Z"/></g></mask><linearGradient id="uuid-ba6e1434-25a7-46f0-b1c5-04ff3f6cbe90" x1="16.5" y1="31.99932" x2="47.5" y2="31.99932" gradientUnits="userSpaceOnUse"><stop offset="0" stop-color="gray"/><stop offset=".0502" stop-color="#979797"/><stop offset=".14189" stop-color="#bcbcbc"/><stop offset=".23367" stop-color="#d9d9d9"/><stop offset=".32445" stop-color="#eee"/><stop offset=".41379" stop-color="#fafafa"/><stop offset=".5" stop-color="#fff"/><stop offset=".56365" stop-color="#fafafa"/><stop offset=".62966" stop-color="#eee"/><stop offset=".69674" stop-color="#d9d9d9"/><stop offset=".76458" stop-color="#bcbcbc"/><stop offset=".83306" stop-color="#979797"/><stop offset=".902" stop-color="#696969"/><stop offset=".97009" stop-color="#333"/><stop offset="1" stop-color="#1a1a1a"/></linearGradient><mask id="uuid-8c223d37-55b4-4ca6-858d-2ac156378a8b" x="16.5" y=".00198" width="31" height="63.99468" maskUnits="userSpaceOnUse"><path class="uuid-3e284742-9bd2-4847-bc2c-2a78cc0461eb" d="M33.69048,63.23551l12.06879-13.7401c1.12199-1.27736,1.74074-2.91939,1.74074-4.61954V6.58039L32.90221,.19078c-.57512-.25174-1.22929-.25174-1.80441,0l-14.59779,6.38962V44.87588c0,1.70015,.61875,3.34218,1.74074,4.61954l12.06879,13.7401c.9055,1.03092,2.50379,.99866,3.38095,0Z"/></mask></defs><g id="uuid-d3b2f088-a35d-4a80-bdf0-9c11cd0bdd35"><path class="uuid-49962f82-b4f3-498d-a304-f50c7f0a43c5" d="M4,16.72264V52.05967l27.09921,11.75358c.57376,.24888,1.22642,.25029,1.80018,.00141l22.71627-9.85377c2.6619-1.15467,4.38435-3.77935,4.38435-6.68089V11.94357L32.90079,.18938c-.57376-.24888-1.2283-.24842-1.80206,.00047L8.38435,10.04175c-2.6619,1.15467-4.38435,3.77935-4.38435,6.68089Z"/><g class="uuid-2670fad5-258d-46c4-afe8-c86811ff56ca"><path class="uuid-fb36825d-10bf-4a2c-8298-6fe8045af229" d="M31.09873,.18985L8.36545,10.04918c-2.65038,1.1494-4.36545,3.76258-4.36545,6.65145V52.05967l27.09921,11.75358c.28757,.12587,.59347,.1874,.90079,.1874V.00197c-.30733,0-.6137,.062-.90127,.18787Z"/></g><g class="uuid-fc4985ef-970c-4a4a-9147-2c1240ea6f60"><path class="uuid-235b31a6-272a-4f02-bb1b-b15999f04f38" d="M30.30952,63.23551c.42719,.48635,1.04315,.76514,1.69048,.76514s1.26329-.27879,1.69048-.76514l12.06878-13.74009c1.12199-1.27736,1.74074-2.91939,1.74074-4.61954V6.58039L32.90079,.18938c-.57512-.25174-1.22694-.25127-1.80206,.00047l-14.59873,6.33335V44.87588c0,1.70015,.61875,3.34218,1.74074,4.61954l12.06878,13.74009Z"/></g></g><g id="uuid-1267c60e-e576-4373-8427-43db489c97bd"><path class="uuid-e2e4709f-bd11-419b-80f1-83f8ea7019b3" d="M51.76228,45.55661c-1.81057,.80248-7.60484,3.11547-15.04361,3.52129l-1.03135-5.13584c4.59981-1.4254,3.96453-3.40648,5.07151-5.44727,1.29282-2.38383,3.75418-2.78125,3.19181-4.88881s-1.88727-6.89066-1.88727-6.89066l-.02604,.00639c-.19353-.8822-.51112-1.6764-.95997-2.36874-.49928-.76904-1.09965-1.43599-1.7921-1.99374l5.34601-1.31289,7.52849,23.62487c.11269,.35398-.05776,.73489-.39748,.8854Zm-13.30721-28.91383c-.70181-.52348-1.47318-.9148-2.30067-1.16622-1.04283-.31628-2.13727-.47655-3.25301-.47655-.9666,0-1.91923,.13672-2.83126,.40624-.91037,.2697-1.72511,.73182-2.42159,1.27028-.22656,.1753-.44021,.37399-.64357,.58456v7.01154c.23307,.19856,.47857,.38133,.73838,.53568,.68808,.40944,1.44256,.73939,2.24262,.98104,.80017,.24212,1.55797,.48833,2.25208,.73205,.69388,.2439,1.27921,.54373,1.73978,.89144,.46696,.3528,.7037,.84042,.7037,1.44919,0,.36191-.09209,.68103-.27355,.94861-.18039,.26562-.4208,.48709-.71495,.65789-.29296,.1701-.62771,.29912-.99465,.38381-.36682,.08452-.73377,.12748-1.09112,.12748-.27935,0-.55906-.02421-.83095-.07173-1.45381-.25426-2.76533-.91316-3.81408-1.89834-.04498,.69619-.12488,1.38403-.24822,2.05334-.15743,.85048-.41796,1.64805-.77401,2.38679,.09612,.06126,.18939,.12701,.28681,.18619,.49289,.2993,1.0104,.54639,1.53856,.73436,1.09704,.39062,2.3044,.58859,3.5887,.58859,1.02259,0,2.00848-.13204,2.9301-.39239,.91984-.26006,1.73919-.66506,2.43532-1.20357,.69577-.5381,1.25566-1.22494,1.66379-2.04151,.40825-.81692,.61516-1.78636,.61516-2.88157,0-1.15007-.22514-2.08039-.66949-2.76563-.44519-.68577-1.01383-1.24056-1.69042-1.64858-.68015-.40944-1.42031-.72998-2.19977-.95263-.78254-.22354-1.52601-.45081-2.20983-.67541-.68524-.22549-1.26122-.50147-1.71149-.82083-.45797-.32433-.69033-.79792-.69033-1.40776,0-.38085,.09706-.76212,.28799-1.02987,.18951-.2655,.43974-.48223,.74395-.64387,.30125-.15992,.62617-.27953,.96565-.35505,.33996-.07522,.67376-.11346,.99217-.11346,.54461,0,1.13078,.10955,1.74227,.32581,.598,.21176,1.08177,.54035,1.43865,.97731l2.45727-2.68724ZM15,27h-4c.0006,.49269,.02185,1.43194,.06425,1.93174,.04315,.50865,.11954,1.02037,.23025,1.53259,.32735,1.51384,1.11306,2.64974,2.15887,3.37059,1.07674,.74235,2.41407,1.11884,3.97448,1.11884,1.3384,0,2.4358-.20219,3.26187-.60107,.82499-.3987,1.71869-.93409,2.16296-1.5914,.44476-.65806,.75071-1.42487,.90883-2.27929,.15885-.85836,.23849-1.75532,.23849-2.66605V15h-4v14.17542c.0001,.47068-.12988,.9265-.38438,1.32244-.01035,.0161-.0209,.03211-.03164,.04803-.375,.55664-.94434,.93359-1.60254,1.06152-.16211,.03125-.32422,.04688-.4834,.04688-.06183,0-.12322-.00228-.18409-.00676-1.27334-.0938-2.30353-1.14649-2.32289-2.42313l.00894-2.2244Zm8,19.82414v-8.76927l-3.99,1.06874v13.10591c0,.2426,.12097,.46927,.32267,.60427,.20158,.135,.45738,.1608,.68169,.0683,1.91059-.78786,6.34835-2.45444,11.57789-3.32137l-.50839-4.75908c-1.72286,.31024-8.08385,2.00249-8.08385,2.00249Z"/><rect class="uuid-35add01d-e8a5-497c-8ea0-e9edc70faabe" width="64" height="64"/></g></svg>